PathFileType	4	(X/Y/Z)	Kaydara																																																																																																																																																																																																																												
DataRate	CameraRate	NumFrames	NumMarkers	Units	OrigDataRate	OrigDataStartFrame	OrigNumFrames																																																																																																																																																																																																																								
60	60	5	74	mm	60	1126	201																																																																																																																																																																																																																								
Frame#	Time	N_lasi			N_rasi			N_rpsi			N_lpsi			N_fneck			N_bneck			N_fhead			N_rhead			N_lhead			N_rshld			N_relbtop			N_relbext			N_relblow			N_rwrext			N_rwrtop			N_rwrlow			N_lshld			N_lelblow			N_lelbtop			N_lwrext			N_lwrtop			N_lwrlow			N_rtopleg			N_ltopleg			N_rkneefr			N_rkneebk			N_rkneeis			N_lkneefr			N_lknssbk			N_lkneeis			N_rankfr			N_rankis			N_rankbk			N_lankfr			N_lankbk			N_lankis			D_lasi			D_rasi			D_lpsi			D_fneck			D_bneck			D_fhead			D_rhead			D_lhead			D_rshld			D_relbtop			D_relbext			D_relblow			D_rwrext			D_rwrtop			D_rwrlow			D_lshld			D_lelbext			D_lelblow			D_lelbtop			D_lwrext			D_lwrtop			D_lwrlow			D_rtopleg			D_ltopleg			D_rkneefr			D_rkneebk			D_rkneeis			D_lkneefr			D_lknssbk			D_lkneeis			D_rankfr			D_rankis			D_rankbk			D_lankfr			D_lankbk			D_lankis			D_rpsi			N_lelbext		
		X1	Y1	Z1	X2	Y2	Z2	X3	Y3	Z3	X4	Y4	Z4	X5	Y5	Z5	X6	Y6	Z6	X7	Y7	Z7	X8	Y8	Z8	X9	Y9	Z9	X10	Y10	Z10	X11	Y11	Z11	X12	Y12	Z12	X13	Y13	Z13	X14	Y14	Z14	X15	Y15	Z15	X16	Y16	Z16	X17	Y17	Z17	X18	Y18	Z18	X19	Y19	Z19	X20	Y20	Z20	X21	Y21	Z21	X22	Y22	Z22	X23	Y23	Z23	X24	Y24	Z24	X25	Y25	Z25	X26	Y26	Z26	X27	Y27	Z27	X28	Y28	Z28	X29	Y29	Z29	X30	Y30	Z30	X31	Y31	Z31	X32	Y32	Z32	X33	Y33	Z33	X34	Y34	Z34	X35	Y35	Z35	X36	Y36	Z36	X37	Y37	Z37	X38	Y38	Z38	X39	Y39	Z39	X40	Y40	Z40	X41	Y41	Z41	X42	Y42	Z42	X43	Y43	Z43	X44	Y44	Z44	X45	Y45	Z45	X46	Y46	Z46	X47	Y47	Z47	X48	Y48	Z48	X49	Y49	Z49	X50	Y50	Z50	X51	Y51	Z51	X52	Y52	Z52	X53	Y53	Z53	X54	Y54	Z54	X55	Y55	Z55	X56	Y56	Z56	X57	Y57	Z57	X58	Y58	Z58	X59	Y59	Z59	X60	Y60	Z60	X61	Y61	Z61	X62	Y62	Z62	X63	Y63	Z63	X64	Y64	Z64	X65	Y65	Z65	X66	Y66	Z66	X67	Y67	Z67	X68	Y68	Z68	X69	Y69	Z69	X70	Y70	Z70	X71	Y71	Z71	X72	Y72	Z72	X73	Y73	Z73	X74	Y74	Z74
																																																																																																																																																																																																																															
176	18.75	-511.17397	1243.66821	-72.42938	-491.21605	1259.39514	-302.75505	-224.47756	1223.89427	-348.25073	-251.79825	1217.92732	-0.24183	-353.61244	1606.72165	-160.66397	-211.87582	1660.55069	-165.63437	-411.60168	1805.34454	-157.15576	-224.69122	1770.18356	-227.01214	-264.34626	1773.11203	-75.19869	-206.75192	1624.07303	-365.86506	-194.80244	1543.40515	-651.06018	-278.06206	1573.13919	-631.31794	-186.93594	1620.7399	-596.29993	-262.77704	1883.48679	-680.7534	-217.87556	1896.06888	-667.33086	-206.48529	1875.12375	-625.31487	-212.68766	1587.7269	26.80353	-207.12149	1578.11859	281.04053	-222.38317	1498.69843	317.91811	-305.32011	1820.61249	403.46981	-262.07502	1835.05325	417.28668	-238.31247	1827.62222	367.929	-400.47848	1054.0448	-437.84092	-359.30168	1014.3856	52.01871	-420.87395	564.23923	-259.26495	-313.60163	579.4173	-325.45181	-364.18079	565.52769	-164.25169	-381.02737	541.32626	-102.52564	-258.76534	554.09393	-36.65123	-250.53713	546.97929	-185.64224	-293.5479	139.70844	-270.76702	-296.67677	153.60261	-190.9523	-215.26875	140.42782	-213.65025	-334.2577	192.30234	-123.07165	-264.64695	184.44765	-76.69786	-300.64695	163.44765	-160.69786	-464.072	1036.00319	1738.91647	-425.36144	1057.25548	1454.67316	-268.06694	1133.46214	1744.70627	-417.99084	1565.75974	1611.35986	-278.6557	1595.54489	1618.33084	-463.3271	1771.73584	1618.29056	-299.12127	1738.02292	1540.18463	-307.96656	1732.34024	1696.26816	-336.36059	1566.77002	1458.91754	-348.89221	1462.93732	1174.54605	-425.17162	1480.18509	1183.11996	-333.45512	1547.7301	1176.10428	-361.49574	1506.87927	923.58498	-384.19525	1559.07684	921.65314	-429.56623	1533.11722	938.21167	-328.81798	1554.44336	1807.76825	-403.0471	1502.89734	2031.84387	-311.10441	1507.52762	2037.56058	-360.64331	1462.76337	2084.7142	-415.26741	1741.28784	2066.57974	-372.79392	1743.34641	2052.6149	-372.15374	1727.80212	2006.78421	-331.54598	1005.96924	1407.49542	-322.44686	1009.83818	1807.93091	-371.4827	456.00174	1449.93439	-271.79237	491.66924	1422.24319	-279.55988	458.92002	1542.87979	-357.57519	449.72233	1770.09216	-244.9268	486.41174	1785.77164	-316.61524	444.161	1678.79578	-323.45718	130.81811	1417.7327	-294.62492	127.0066	1482.15836	-243.228	127.92427	1418.00797	-323.17776	135.18259	1792.21817	-250.5522	124.94151	1806.17325	-293.86328	124.19205	1732.82562	-239.33229	1150.37674	1527.52472	-297.55426	1541.08765	296.21181
177	18.767	-511.16611	1243.49197	-72.46502	-491.24912	1259.27689	-302.73844	-224.50228	1223.85109	-348.12046	-251.73594	1218.00842	-0.17259	-353.7788	1606.83304	-160.75775	-212.0422	1660.66193	-165.72815	-411.65375	1805.61188	-157.49301	-224.64029	1770.08575	-227.13844	-264.96756	1773.04718	-75.09309	-207.19494	1624.11102	-366.03424	-195.30441	1543.7207	-651.24458	-278.51923	1573.32184	-631.427	-186.84835	1621.36734	-596.24615	-263.53775	1883.69019	-681.02493	-218.77314	1896.33209	-667.92763	-207.37808	1875.51865	-625.92979	-212.86785	1587.77496	26.79234	-207.16383	1577.80884	281.00653	-222.54719	1498.43597	317.84378	-305.26913	1820.44983	403.36655	-262.08069	1834.83948	417.08588	-238.30498	1827.4086	367.64317	-400.39326	1053.88939	-437.74113	-359.80129	1014.58694	52.39562	-420.89691	564.24011	-259.1328	-313.58692	579.43584	-325.27298	-364.32823	565.54443	-164.10204	-381.17779	541.3636	-102.43019	-259.07322	554.01875	-36.43725	-250.60852	547.00726	-185.37081	-293.54975	139.72521	-270.72702	-296.69453	153.6163	-190.94696	-215.30975	140.45916	-213.58225	-334.34734	192.28153	-123.09825	-264.54784	184.37307	-76.69671	-300.54784	163.37307	-160.69671	-464.09855	1036.01807	1738.76953	-425.29984	1057.29347	1454.5163	-268.16797	1133.45787	1744.63333	-417.88151	1565.72311	1611.21338	-278.53754	1595.61447	1618.10043	-463.5318	1771.56952	1618.0304	-299.23183	1738.12393	1540.01282	-308.04859	1732.43683	1696.08673	-336.28727	1566.75949	1458.8385	-349.05815	1462.97607	1174.3087	-425.28793	1480.16129	1183.00926	-333.62904	1547.78183	1175.91232	-361.8544	1507.12479	923.43216	-384.56642	1559.35318	921.68564	-429.82517	1533.24463	938.12454	-328.52509	1554.4397	1807.5705	-402.67433	1502.78793	2031.74255	-310.83145	1507.55783	2037.61475	-360.15171	1462.75452	2084.6048	-414.87099	1741.23749	2066.4975	-372.52445	1743.20511	2052.742	-372.0697	1727.78564	2006.60858	-331.49105	1005.94276	1407.34833	-322.52911	1009.85367	1807.91351	-371.57711	456.01166	1449.84909	-271.87084	491.67526	1422.19833	-279.68441	458.94466	1542.83508	-357.71454	449.73648	1769.98901	-245.12117	486.43394	1785.66422	-316.76361	444.13986	1678.75229	-323.44788	130.83235	1417.68036	-294.64359	127.01867	1482.14813	-243.23002	127.92757	1418.0069	-323.20774	135.18565	1792.2171	-250.55828	124.96135	1806.17065	-293.86932	124.16399	1732.82684	-239.27702	1150.29556	1527.45468	-297.71282	1540.74249	296.24762
178	18.783	-511.18721	1243.38257	-72.32271	-491.26659	1259.1153	-302.60094	-224.52682	1223.78998	-348.0138	-251.68732	1218.15338	-0.10553	-353.99731	1606.93314	-160.8843	-212.26072	1660.76187	-165.8547	-411.73038	1805.74982	-157.84539	-224.69566	1769.97681	-227.23051	-265.16731	1773.1572	-75.36103	-207.5522	1624.22485	-366.12007	-195.8275	1544.00223	-651.32309	-279.00406	1573.49152	-631.53381	-187.5778	1621.46408	-596.47385	-264.29691	1884.05182	-681.9014	-219.5846	1896.6272	-668.53218	-208.26569	1875.83649	-626.35578	-213.06715	1587.80334	26.79069	-207.21571	1577.42599	281.06035	-222.69104	1498.15781	317.86098	-305.27225	1820.2507	402.89951	-261.94448	1834.76807	416.52805	-238.39169	1827.18262	367.13467	-400.30876	1053.70514	-437.58362	-359.69086	1014.51164	52.6589	-420.85987	564.22592	-258.93509	-313.54456	579.47289	-325.05894	-364.32762	565.51163	-163.9068	-381.31432	541.3932	-102.31112	-259.34263	553.90968	-36.19399	-250.54901	547.03426	-185.1576	-293.49306	139.70841	-270.51296	-296.69413	153.62145	-190.89396	-215.27063	140.45496	-213.55272	-334.38843	192.25922	-123.10136	-264.67445	184.32421	-76.65147	-300.67445	163.32421	-160.65147	-464.16576	1036.03401	1738.68805	-425.30373	1057.31133	1454.41895	-268.24301	1133.44604	1744.55368	-417.81898	1565.69107	1611.06689	-278.45364	1595.66925	1617.82501	-463.64311	1771.3942	1617.85248	-299.24566	1738.31345	1539.44992	-308.03864	1732.4324	1695.86288	-336.21418	1566.74927	1458.68103	-349.15249	1463.0423	1174.09622	-425.41027	1480.13321	1182.8434	-333.8422	1547.84775	1175.79292	-362.22298	1507.48688	923.32413	-385.12188	1559.69116	921.70792	-430.22484	1533.44528	938.01224	-328.31722	1554.4136	1807.3912	-402.39143	1502.69394	2031.5741	-310.70381	1507.5177	2037.78061	-359.67579	1462.73819	2084.52454	-414.55437	1741.18027	2066.3765	-372.28416	1743.13873	2052.53723	-371.7979	1727.67746	2006.58875	-331.44779	1005.96313	1407.23068	-322.64915	1009.85588	1807.85034	-371.6975	455.96867	1449.80881	-271.90046	491.67217	1422.16187	-279.7756	458.92414	1542.78809	-357.87945	449.71672	1769.90341	-245.25402	486.43303	1785.66528	-316.89602	444.10095	1678.63983	-323.44513	130.82943	1417.66251	-294.6451	127.0181	1482.146	-243.17736	127.95652	1417.92648	-323.20873	135.13961	1792.16476	-250.60364	124.97844	1806.15067	-293.87352	124.16722	1732.72263	-239.27607	1150.2079	1527.4472	-297.87077	1540.45181	296.27607
179	18.8	-511.22837	1243.29681	-72.1261	-491.31157	1258.96721	-302.39025	-224.62046	1223.77113	-347.89669	-251.66088	1218.26759	0.02181	-354.12926	1607.04147	-160.93903	-212.39264	1660.87036	-165.90942	-411.94763	1805.75623	-158.25623	-224.82853	1769.9707	-227.2979	-265.24662	1773.26111	-75.6352	-207.93657	1624.32693	-366.13689	-196.27153	1544.21814	-651.20987	-279.52208	1573.68469	-631.46793	-188.54279	1621.55121	-596.57337	-265.04572	1884.27643	-682.18658	-220.25898	1896.9194	-669.00528	-209.05556	1876.18378	-626.86504	-213.29327	1587.83569	26.91245	-207.32487	1577.06024	281.15049	-222.80125	1497.94739	317.822	-305.17958	1820.12039	402.40227	-261.89402	1834.71603	415.96771	-238.45261	1827.02454	366.60015	-400.25742	1053.56453	-437.36641	-359.76101	1014.59892	53.15562	-420.83778	564.22421	-258.77546	-313.49522	579.49951	-324.86317	-364.23836	565.51456	-163.70272	-381.34808	541.37257	-102.1859	-259.31322	553.92094	-36.01514	-250.44758	547.0385	-184.92142	-293.47181	139.6867	-270.42749	-296.69943	153.63903	-190.84038	-215.2887	140.42459	-213.48022	-334.4025	192.22929	-123.05959	-264.73133	184.28185	-76.59615	-300.73133	163.28185	-160.59615	-464.24984	1036.08177	1738.5759	-425.28053	1057.37602	1454.35516	-268.36437	1133.43727	1744.43909	-417.70275	1565.66238	1610.94391	-278.32886	1595.72144	1617.71408	-463.7051	1771.1908	1617.60605	-299.31702	1738.36914	1539.32419	-308.03705	1732.52762	1695.70938	-336.13842	1566.73157	1458.582	-349.22764	1463.12561	1173.93959	-425.5405	1480.13306	1182.71866	-334.04114	1547.9567	1175.70641	-362.72858	1507.80945	923.22212	-385.58846	1559.88693	921.62804	-430.53402	1533.75107	937.92953	-328.10844	1554.39011	1807.18765	-402.21687	1502.603	2031.436	-310.33335	1507.42249	2037.28226	-359.40857	1462.63092	2084.38354	-414.25453	1741.10062	2066.23047	-372.0126	1743.07312	2052.31476	-371.67995	1727.52884	2006.58081	-331.3995	1005.97969	1407.08908	-322.72877	1009.85008	1807.76947	-371.75079	455.99075	1449.68109	-271.93869	491.66702	1422.10785	-279.86423	458.90812	1542.75543	-358.05996	449.68563	1769.80469	-245.39944	486.4782	1785.64362	-317.0286	444.2123	1678.59711	-323.43475	130.79607	1417.6561	-294.6446	127.01832	1482.14676	-243.1937	127.95851	1417.95563	-323.26141	135.13132	1792.14722	-250.67053	124.9733	1806.08734	-293.92202	124.15241	1732.72476	-239.13145	1150.09392	1527.32895	-298.0966	1540.17944	296.26692
180	18.817	-511.20331	1243.16566	-71.89616	-491.41075	1258.87001	-302.12677	-224.75767	1223.76915	-347.80727	-251.61051	1218.29834	0.07718	-354.40544	1607.00409	-160.93168	-212.66882	1660.83313	-165.90208	-412.23125	1805.66269	-158.64952	-225.05108	1769.88358	-227.48386	-265.53061	1773.43353	-75.80831	-208.27496	1624.41483	-366.02207	-196.75915	1544.5636	-651.11221	-279.9918	1573.87497	-631.2722	-189.11751	1621.83228	-596.5617	-265.75262	1884.51111	-682.67502	-221.08608	1897.29233	-669.5903	-209.86538	1876.6066	-627.24754	-213.43994	1587.81097	26.97917	-207.43725	1576.78131	281.1622	-222.90617	1497.79022	317.83459	-305.24776	1820.02151	401.8964	-261.93918	1834.70734	415.48248	-238.5116	1826.95435	366.11881	-400.27874	1053.45779	-437.08389	-359.589	1014.49234	53.60967	-420.79632	564.22901	-258.57021	-313.42499	579.54308	-324.6817	-364.11388	565.51117	-163.47029	-381.30985	541.36841	-102.07891	-259.24292	553.87329	-35.76605	-250.34922	547.06123	-184.68405	-293.48623	139.70103	-270.37983	-296.70862	153.65496	-190.79844	-215.24668	140.44266	-213.5033	-334.36665	192.23248	-123.0477	-264.76582	184.26243	-76.50687	-300.76582	163.26243	-160.50687	-464.30931	1036.06888	1738.47946	-425.2861	1057.41821	1454.27109	-268.4671	1133.39272	1744.31961	-417.57519	1565.6134	1610.85815	-278.15329	1595.76569	1617.57813	-463.73543	1771.00525	1617.32941	-299.28288	1738.41095	1539.22501	-308.02292	1732.59232	1695.5661	-336.10508	1566.72821	1458.44131	-349.36317	1463.20389	1173.86024	-425.66463	1480.19653	1182.6371	-334.23988	1548.02383	1175.6665	-363.22327	1507.9512	923.15628	-385.87318	1559.9913	921.3237	-431.06529	1534.00742	937.99683	-327.9731	1554.37576	1807.12372	-402.00684	1502.46094	2031.21613	-310.02392	1507.29736	2036.81717	-359.30737	1462.52106	2084.24469	-414.1114	1741.03226	2066.09055	-371.80923	1742.99438	2052.01447	-371.52245	1727.38052	2006.53854	-331.3863	1005.97946	1407.00104	-322.83169	1009.85443	1807.69821	-371.82373	455.94643	1449.69254	-271.96798	491.65504	1422.06772	-279.9472	458.9032	1542.62543	-358.17924	449.6468	1769.74884	-245.49391	486.51287	1785.60455	-317.13476	444.18915	1678.54034	-323.4473	130.78692	1417.6564	-294.64462	127.0183	1482.14676	-243.17955	127.94909	1417.92831	-323.32825	135.14534	1792.07306	-250.71461	124.9672	1806.06293	-293.95374	124.15168	1732.65961	-239.09227	1150.01083	1527.17743	-298.25659	1540.00305	296.27457
